<?xml version="1.0" encoding="UTF-8" standalone="no"?>
<!-- Generator: Adobe Illustrator 16.0.0, SVG Export Plug-In . SVG Version: 6.00 Build 0)  -->

<svg
   version="1.1"
   id="Capa_1"
   x="0px"
   y="0px"
   width="415.153px"
   height="415.153px"
   viewBox="0 0 415.153 415.153"
   style="enable-background:new 0 0 415.153 415.153;"
   xml:space="preserve"
   sodipodi:docname="arrow.svg"
   inkscape:version="1.2.1 (9c6d41e410, 2022-07-14, custom)"
   xmlns:inkscape="http://www.inkscape.org/namespaces/inkscape"
   xmlns:sodipodi="http://sodipodi.sourceforge.net/DTD/sodipodi-0.dtd"
   xmlns="http://www.w3.org/2000/svg"
   xmlns:svg="http://www.w3.org/2000/svg"><defs
   id="defs41" /><sodipodi:namedview
   id="namedview39"
   pagecolor="#ffffff"
   bordercolor="#000000"
   borderopacity="0.25"
   inkscape:showpageshadow="2"
   inkscape:pageopacity="0.0"
   inkscape:pagecheckerboard="0"
   inkscape:deskcolor="#d1d1d1"
   showgrid="false"
   inkscape:zoom="1.3464915"
   inkscape:cx="207.20517"
   inkscape:cy="219.08791"
   inkscape:window-width="1340"
   inkscape:window-height="687"
   inkscape:window-x="13"
   inkscape:window-y="68"
   inkscape:window-maximized="1"
   inkscape:current-layer="Capa_1" />
<g
   id="g6"
   style="fill:#fcf5e9;fill-opacity:1;stroke:none;stroke-opacity:1">
	<g
   id="g4"
   style="fill:#fcf5e9;fill-opacity:1;stroke:none;stroke-opacity:1">
		<path
   d="M412.738,45.531c-1.595-8.579-10.786-13.789-19.058-13.249c-0.376-0.02-0.706-0.109-1.092-0.109    c-109.187,0-218.3-5.81-327.456-0.625c-7.32,0.348-20.243-1.493-32.659-1.444C15.775,30.16,0,33.623,0,50.373    c0,0.482,0.109,0.942,0.145,1.409c-0.119,1.896-0.045,3.88,0.505,6.027c30.336,118.437,94.689,225.957,169.775,321.322    c4.222,5.356,9.371,6.886,14.21,6.022c2.575,0.37,5.149,0.599,7.759,0.604c5.86,0.006,11.101-2.925,14.444-7.343    c0.784-0.573,1.571-1.143,2.323-1.884c86.295-85.563,163.389-185.216,204.876-300.522c1.346-3.745,1.381-7.083,0.6-10.016    C414.53,59.125,414.008,52.337,412.738,45.531z M189.447,344.712C125.7,262.241,71.122,169.642,41.579,69.291    c112.081-7.348,224.33-1.478,336.533-0.792C339.595,174.103,268.158,265.659,189.447,344.712z"
   id="path2"
   style="fill:#fcf5e9;fill-opacity:1;stroke:none;stroke-opacity:1" />
	</g>
</g>
<g
   id="g8">
</g>
<g
   id="g10">
</g>
<g
   id="g12">
</g>
<g
   id="g14">
</g>
<g
   id="g16">
</g>
<g
   id="g18">
</g>
<g
   id="g20">
</g>
<g
   id="g22">
</g>
<g
   id="g24">
</g>
<g
   id="g26">
</g>
<g
   id="g28">
</g>
<g
   id="g30">
</g>
<g
   id="g32">
</g>
<g
   id="g34">
</g>
<g
   id="g36">
</g>
</svg>
